<svg width="619" height="619" xmlns="http://www.w3.org/2000/svg" xmlns:xlink="http://www.w3.org/1999/xlink">
 <defs>
  <linearGradient x1="7.7067" y1="34.382" x2="6.1094" xlink:href="#linearGradient3759" y2="34.165" id="linearGradient4213"/>
  <linearGradient x1="7.7067" y1="27.507" x2="6.1094" xlink:href="#linearGradient3759" y2="27.725" id="linearGradient4201"/>
  <linearGradient x1="16.492" y1="18.58" x2="13.615" xlink:href="#linearGradient3759" y2="18.726" id="linearGradient4197"/>
  <linearGradient x1="6.8841" y1="25.448" x2="5.2867" xlink:href="#linearGradient3759" y2="25.953" id="linearGradient4199"/>
  <linearGradient x1="15.711" y1="19.484" x2="15.212" xlink:href="#linearGradient3759" y2="19.487" id="linearGradient4203"/>
  <linearGradient x1="7.5329" y1="14.949" x2="7.2757" xlink:href="#linearGradient3759" y2="14.758" id="linearGradient4205"/>
  <linearGradient x1="6.8841" y1="31.699" x2="5.2867" xlink:href="#linearGradient3759" y2="31.194" id="linearGradient4211"/>
  <linearGradient x1="7.2175" y1="15.211" x2="6.3633" xlink:href="#linearGradient3759" y2="13.825" id="linearGradient4207"/>
  <linearGradient x1="17.077" y1="21.877" x2="13.57" xlink:href="#linearGradient3759" y2="21.923" id="linearGradient4209"/>
  <linearGradient x1="17.077" y1="18.97" x2="13.57" xlink:href="#linearGradient3759" y2="18.924" id="linearGradient4195"/>
  <linearGradient x1="7.2175" y1="12.224" x2="6.3633" xlink:href="#linearGradient3759" y2="13.611" id="linearGradient4193"/>
  <linearGradient x1="16.492" y1="22.267" x2="13.615" xlink:href="#linearGradient3759" y2="22.12" id="linearGradient4153"/>
  <linearGradient id="linearGradient3759">
   <stop offset="0" stop-color="#1a1a1a" id="stop3761"/>
   <stop offset="1" stop-opacity="0" stop-color="#f30000" id="stop3763"/>
  </linearGradient>
  <linearGradient x1="14.678" y1="19.872" x2="13.695" xlink:href="#linearGradient3759" y2="19.593" id="linearGradient4149"/>
  <linearGradient x1="15.47" y1="19.8" x2="12.75" xlink:href="#linearGradient3759" y2="19.595" id="linearGradient4155"/>
  <linearGradient x1="14.678" y1="16.724" x2="13.695" xlink:href="#linearGradient3759" y2="17.003" id="linearGradient4185"/>
  <linearGradient x1="7.5329" y1="12.487" x2="7.2757" xlink:href="#linearGradient3759" y2="12.678" id="linearGradient4191"/>
  <linearGradient x1="15.711" y1="17.112" x2="15.212" xlink:href="#linearGradient3759" y2="17.11" id="linearGradient4187"/>
  <linearGradient x1="15.47" y1="16.796" x2="12.75" xlink:href="#linearGradient3759" y2="17.001" id="linearGradient4189"/>
 </defs>
 <g>
  <title>background</title>
  <rect fill="none" id="canvas_background" height="621" width="621" y="-1" x="-1"/>
 </g>
 <g>
  <title>Layer 1</title>
  <g id="layer1">
   <g transform="rotate(90 296.3121032714844,314.60885620117193) " id="g3890">
    <path stroke-width="14" stroke="#191919" fill-opacity="0.996" d="m344.69243,169.998031c-0.94443,0.00562 -2.9556,0.19088 -4.0496,0.58691l-2.1911,0.9391l5.4191,22.498l-78.136,0.1761c-1.5252,0.00312 -3.0598,-0.00875 -4.5974,-0.01952c-3.0751,-0.02148 -6.1758,-0.06546 -9.2927,-0.13694c-4.5655,-0.10474 -9.1832,-0.25851 -13.812,-0.44997c-0.24783,-0.01028 -0.49542,-0.02862 -0.74341,-0.03913c-9.3482,-0.39452 -18.786,-0.93385 -28.191,-1.526c-12.725,-0.80303 -25.367,-1.695 -37.64,-2.4259c-9.0951,-0.5417 -17.987,-0.98888 -26.528,-1.2521c-5.8654,-0.18076 -11.559,-0.2858 -17.059,-0.25432c-2.7018,0.01548 -5.3638,0.05841 -7.9623,0.13695c-2.5985,0.07856 -5.2463,0.22242 -7.9232,0.41084c-1.3385,0.09417 -2.678,0.19422 -4.0301,0.31302c-4.0498,0.35584 -8.1667,0.82726 -12.266,1.3694c-0.00631,0.00061 -0.0132,-0.00061 -0.01952,0c-2.7374,0.3622 -5.4581,0.76723 -8.1775,1.1934s-5.4299,0.87511 -8.0993,1.3499c-2.663,0.47365 -5.3028,0.97998 -7.8841,1.4868c-0.00626,0.00125 -0.01327,-0.00126 -0.01954,0c-1.2936,0.25409 -2.5478,0.50345 -3.8149,0.76297c-3.7947,0.77732 -7.471,1.5752 -10.956,2.3672c-0.00632,0.00125 -0.01321,-0.00127 -0.01954,0c-2.3266,0.52894 -4.5621,1.0487 -6.7102,1.5651c-4.297,1.03189 -8.2107,2.025 -11.601,2.915c-5.0857,1.335 -9.0039,2.4586 -11.327,3.1302c-1.5486,0.44809 -2.3867,0.70428 -2.3867,0.70428l-8.5688,2.3476c-0.56493,0.1557 -1.1132,0.43376 -1.6433,0.82169c-0.18012,0.13178 -0.35204,0.27289 -0.52821,0.43039c-0.68838,0.61328 -1.3466,1.4215 -1.9759,2.40629c-0.00287,0.0044 0.00288,0.0152 0,0.01954c-0.31324,0.49127 -0.64009,1.027 -0.93904,1.6042c-0.00263,0.005 0.00263,0.01452 0,0.01953c-0.29898,0.57826 -0.59545,1.1984 -0.88036,1.8585c-0.00232,0.00561 0.00232,0.01391 0,0.01953c-2.2957,5.3272 -4.1444,13.229 -5.5951,22.674c-0.00094,0.00627 0.00094,0.01326 0,0.01951c-0.02251,0.14659 -0.03637,0.30264 -0.0587,0.44997c-0.3159,2.0856 -0.62104,4.2559 -0.89991,6.4756c-0.01908,0.15192 -0.03979,0.2975 -0.05869,0.44997c-0.31401,2.5312 -0.59268,5.135 -0.8608,7.8059c-0.00063,0.00626 0.00062,0.01322 0,0.01952c-0.13368,1.3325 -0.26864,2.6887 -0.39127,4.0497c-0.00057,0.00627 0.00058,0.01306 0,0.01953c-0.12259,1.3612 -0.24038,2.7228 -0.35214,4.1084c-0.00051,0.00626 0.00052,0.01306 0,0.01953c-0.22396,2.7781 -0.42456,5.6004 -0.60646,8.4515c-0.00042,0.0063 0.0004,0.01308 0,0.01952c-0.54628,8.5668 -0.91375,17.397 -1.1151,26.02c-0.00016,0.0065 0.00015,0.01295 0,0.01951c-0.13424,5.7529 -0.19571,11.402 -0.19571,16.844c0,0.60579 0.01725,1.2288 0.01957,1.839c-0.00232,0.61015 -0.01957,1.2332 -0.01957,1.839c0,5.4423 0.06146,11.092 0.19565,16.844c0.00016,0.00657 -0.00015,0.01304 0,0.01954c0.20135,8.6229 0.56884,17.453 1.1151,26.02c0.0004,0.00647 -0.00041,0.01321 0,0.01953c0.1819,2.8511 0.3825,5.6734 0.60646,8.4515c0.00052,0.00647 -0.00052,0.01324 0,0.01953c0.11176,1.3856 0.22956,2.7472 0.35214,4.1084c0.00058,0.00644 -0.00057,0.01321 0,0.0195c0.12263,1.361 0.25758,2.7172 0.39128,4.0497c0.00061,0.00638 -0.00063,0.01321 0,0.01953c0.2681,2.6709 0.54679,5.2748 0.86078,7.8059c0.0189,0.15244 0.03961,0.29804 0.0587,0.44995c0.27886,2.2196 0.58401,4.39 0.89991,6.4756c0.02232,0.14734 0.03619,0.30341 0.05869,0.44998c0.00094,0.00629 -0.00094,0.01346 0,0.01953c1.4508,9.4453 3.2995,17.347 5.5952,22.674c0.00231,0.00561 -0.00232,0.01413 0,0.01953c0.2849,0.66019 0.58137,1.2803 0.88034,1.8585c0.00263,0.00501 -0.00263,0.01447 0,0.01953c0.29896,0.57724 0.6258,1.113 0.93905,1.6042c0.00289,0.0044 -0.00288,0.01514 0,0.01953c0.62931,0.9848 1.2875,1.7931 1.9759,2.4063c0.17617,0.1575 0.34809,0.29862 0.52822,0.43039c0.53016,0.38791 1.0784,0.66598 1.6433,0.82169l8.5688,2.3476s0.83815,0.2562 2.3868,0.70428c2.3233,0.67163 6.2416,1.7952 11.327,3.1302c3.3904,0.89002 7.3041,1.8831 11.601,2.915c2.1482,0.51636 4.3836,1.0361 6.7102,1.5651c0.00639,0.00125 0.01322,-0.00128 0.01954,0c3.4846,0.79205 7.1609,1.5899 10.956,2.3672c1.2671,0.25952 2.5213,0.50888 3.8149,0.763c0.00633,0.00125 0.01326,-0.00128 0.01954,0c2.5813,0.50684 5.2211,1.0132 7.8841,1.4868c2.6694,0.47482 5.3798,0.92374 8.0993,1.3499c2.7194,0.42615 5.4402,0.83118 8.1775,1.1934c0.00635,0.00061 0.0132,-0.00061 0.01953,0c4.0996,0.54221 8.2165,1.0136 12.266,1.3695c1.352,0.11877 2.6916,0.21881 4.0301,0.31302c2.6769,0.18842 5.3247,0.33228 7.9232,0.41083c2.5986,0.07855 5.2605,0.12146 7.9623,0.13693c5.5003,0.0315 11.194,-0.07354 17.059,-0.2543c8.5407,-0.26321 17.433,-0.71039 26.528,-1.2521c12.273,-0.73099 24.915,-1.6229 37.64,-2.4259c9.4053,-0.5921 18.843,-1.1314 28.191,-1.526c0.24796,-0.0105 0.49554,-0.02884 0.74341,-0.03912c4.6286,-0.19147 9.2464,-0.34524 13.812,-0.44995c3.1168,-0.0715 6.2175,-0.11548 9.2927,-0.13696c1.5375,-0.01077 3.0722,-0.02286 4.5974,-0.01953l78.136,0.1761l-5.419,22.498l2.1911,0.9391c1.0941,0.39603 3.1052,0.5813 4.0496,0.58691c0.53122,0.00314 1.0987,-0.04639 1.6825,-0.15649c0.19449,-0.03662 0.39035,-0.08832 0.58691,-0.13696c0.19067,-0.04734 0.39603,-0.09809 0.58691,-0.15649c0.3934,-0.12088 0.79102,-0.26392 1.1738,-0.43042c1.1404,-0.49676 2.2126,-1.2092 2.9932,-2.0737c0.00625,-0.00669 0.01361,-0.01291 0.01953,-0.01953c0.39114,-0.43689 0.69632,-0.90854 0.9195,-1.4282l7.6102,-19.603l68.824,0.1565c0.46756,0.23407 0.92407,0.46646 1.389,0.68472c1.8651,0.87616 3.7005,1.6258 5.5364,2.2694c0.91544,0.32089 1.8266,0.61069 2.7389,0.88037c3.1928,0.94373 6.378,1.5974 9.6056,2.0346c1.8444,0.24997 3.7098,0.43442 5.5952,0.56735c0.9426,0.0664 1.8994,0.11276 2.8563,0.15652c1.9138,0.08761 3.843,0.13324 5.8299,0.15649c3.9738,0.04638 8.1256,0 12.521,0c6.5171,0 12.722,-0.33258 18.644,-0.97818c2.3686,-0.25827 4.6897,-0.56186 6.9646,-0.9195c4.5498,-0.71527 8.9075,-1.6395 13.088,-2.7389c1.0451,-0.27484 2.0883,-0.56262 3.1106,-0.86078c3.067,-0.89447 6.0179,-1.894 8.8818,-2.9933c0.95453,-0.36639 1.9044,-0.72653 2.8367,-1.1151c1.8646,-0.77722 3.6824,-1.6008 5.4582,-2.465c0.88794,-0.43213 1.7752,-0.87686 2.641,-1.3303c1.7319,-0.90698 3.4224,-1.8656 5.067,-2.8563c0.82227,-0.49533 1.6252,-1.0101 2.4258,-1.5259c4.0031,-2.5794 7.7398,-5.3999 11.21,-8.4711c2.7725,-2.4538 5.385,-5.0583 7.8254,-7.8059c0.00317,-0.00376 -0.00311,-0.0159 0,-0.01953c0.60754,-0.6842 1.2126,-1.372 1.7999,-2.0737c0.00311,-0.00376 -0.00311,-0.01572 0,-0.01954c0.5871,-0.70175 1.1743,-1.4134 1.7412,-2.1324c0.00311,-0.00375 -0.00317,-0.01559 0,-0.01953c1.7063,-2.165 3.3262,-4.3941 4.8518,-6.7103c0.00311,-0.00439 -0.00317,-0.01501 0,-0.01953c0.50635,-0.76914 1.0197,-1.5428 1.5064,-2.3281c0.00317,-0.005 -0.00311,-0.01489 0,-0.01953c1.4653,-2.3652 2.859,-4.7907 4.1475,-7.2972c0.00256,-0.005 -0.0025,-0.01446 0,-0.01953c0.42761,-0.83209 0.84375,-1.6766 1.2521,-2.5237c0.00256,-0.005 -0.0025,-0.01431 0,-0.01953c0.4082,-0.8472 0.82385,-1.7009 1.213,-2.5628c0.00256,-0.00561 -0.0025,-0.01422 0,-0.01953c0.78033,-1.7294 1.5263,-3.4756 2.2302,-5.2626c0.0025,-0.00562 -0.0025,-0.01404 0,-0.01953c0.35077,-0.89078 0.68536,-1.7951 1.0173,-2.6998c0.00183,-0.00562 -0.00189,-0.01389 0,-0.01953c0.33179,-0.90476 0.66504,-1.8205 0.97815,-2.7389c0.31305,-0.91849 0.62506,-1.8462 0.9195,-2.778c0.00189,-0.00562 -0.00183,-0.01377 0,-0.01953c0.29437,-0.93192 0.58496,-1.8722 0.86084,-2.8172c0.00183,-0.00629 -0.00189,-0.01358 0,-0.0195c0.2757,-0.94507 0.54468,-1.8984 0.80206,-2.8563c0.00189,-0.00626 -0.00183,-0.01358 0,-0.01954c0.77515,-2.8861 1.4827,-5.8259 2.0933,-8.8232l0,-0.0195c0.20258,-0.99503 0.38263,-2.0061 0.56738,-3.0128l0,-0.01953c1.2988,-7.0857 2.1674,-14.438 2.6019,-22.048c0.0003,-0.00647 -0.00043,-0.01323 0,-0.01953c0.06134,-1.0817 0.11188,-2.1759 0.15649,-3.2671c0.00024,-0.00645 -0.00024,-0.01321 0,-0.01951c0.08923,-2.1892 0.15442,-4.3868 0.17602,-6.6125c0,-0.00647 -0.00006,-0.01323 0,-0.01954c0.01068,-1.1162 0.00629,-2.24 0,-3.3649c0,-0.39804 -0.01373,-0.79596 -0.01941,-1.1934c0.00629,-0.39743 0.01941,-0.79535 0.01941,-1.1934c0.00629,-1.125 0.01068,-2.2488 0,-3.3649c-0.00006,-0.00637 0,-0.01306 0,-0.01951c-0.0213,-2.2258 -0.08679,-4.4233 -0.17602,-6.6125c-0.00024,-0.00639 0.00024,-0.01308 0,-0.01953c-0.04443,-1.0912 -0.09515,-2.1854 -0.15649,-3.2671c-0.00043,-0.00638 0.0003,-0.01306 0,-0.01952c-0.43457,-7.6106 -1.3031,-14.962 -2.6019,-22.048l0,-0.01951c-0.18475,-1.0067 -0.36481,-2.0178 -0.56738,-3.0128l0,-0.01954c-0.6106,-2.9973 -1.3182,-5.9371 -2.0933,-8.8232c-0.00183,-0.00627 0.00189,-0.01333 0,-0.01953c-0.25738,-0.9579 -0.52637,-1.9112 -0.80206,-2.8563c-0.00189,-0.00627 0.00183,-0.01333 0,-0.01953c-0.27588,-0.94498 -0.56647,-1.8852 -0.86084,-2.8172c-0.00183,-0.00561 0.00189,-0.01394 0,-0.01953c-0.29443,-0.93182 -0.60644,-1.8596 -0.9195,-2.778c-0.31311,-0.91836 -0.64636,-1.8341 -0.97815,-2.7389c-0.00189,-0.0056 0.00183,-0.01395 0,-0.01953c-0.33197,-0.90465 -0.66656,-1.809 -1.0173,-2.6998c-0.0025,-0.0056 0.0025,-0.01393 0,-0.01952c-0.70392,-1.7871 -1.4499,-3.5332 -2.2302,-5.2626c-0.0025,-0.00502 0.00256,-0.01396 0,-0.01954c-0.38904,-0.86192 -0.80475,-1.7156 -1.213,-2.5628c-0.0025,-0.00501 0.00256,-0.01459 0,-0.01953c-0.40832,-0.84711 -0.82446,-1.6916 -1.2521,-2.5237c-0.0025,-0.00502 0.00256,-0.01461 0,-0.01955c-1.2884,-2.5065 -2.6822,-4.932 -4.1475,-7.2972c-0.00311,-0.0044 0.00317,-0.01457 0,-0.01953c-0.48663,-0.78525 -1,-1.5589 -1.5064,-2.3281c-0.00317,-0.0044 0.00311,-0.01514 0,-0.01952c-1.5255,-2.3163 -3.1454,-4.5454 -4.8518,-6.7103c-0.00317,-0.00374 0.00311,-0.01587 0,-0.01953c-0.56696,-0.71898 -1.1541,-1.4307 -1.7412,-2.1324c-0.00311,-0.00372 0.00311,-0.01584 0,-0.0195c-0.58722,-0.70175 -1.1923,-1.3896 -1.7999,-2.0738c-0.00311,-0.00374 0.00317,-0.01584 0,-0.01953c-2.4404,-2.7476 -5.0529,-5.3521 -7.8254,-7.8059c-3.4702,-3.0712 -7.2068,-5.8917 -11.21,-8.4711c-0.8006,-0.51587 -1.6036,-1.0306 -2.4258,-1.526c-1.6445,-0.99072 -3.3351,-1.9493 -5.067,-2.8563c-0.86584,-0.45347 -1.753,-0.8982 -2.641,-1.3303c-1.7759,-0.86426 -3.5937,-1.6878 -5.4582,-2.465c-0.93231,-0.38861 -1.8821,-0.74873 -2.8367,-1.1151c-2.8639,-1.0992 -5.8149,-2.0988 -8.8818,-2.9932c-1.0223,-0.29816 -2.0655,-0.58596 -3.1106,-0.8608c-4.1805,-1.0994 -8.5382,-2.0237 -13.088,-2.7389c-2.2749,-0.35766 -4.596,-0.66123 -6.9646,-0.9195c-5.9214,-0.64644 -12.127,-0.97898 -18.644,-0.97898c-4.3951,0 -8.5469,-0.04639 -12.521,0c-1.9869,0.02327 -3.9161,0.06889 -5.8299,0.1565c-0.95688,0.04376 -1.9136,0.0901 -2.8563,0.15651c-1.8853,0.13294 -3.7507,0.31738 -5.5952,0.56735c-3.2276,0.43728 -6.4129,1.0909 -9.6056,2.0346c-0.91226,0.26968 -1.8234,0.55946 -2.7389,0.88036c-1.836,0.64354 -3.6714,1.3932 -5.5364,2.2694c-0.46497,0.21825 -0.92142,0.45064 -1.389,0.68474l-68.824,0.1565l-7.6102,-19.603c-0.22314,-0.51962 -0.52832,-0.99123 -0.9195,-1.4282c-0.00626,-0.00657 -0.01334,-0.0129 -0.01953,-0.01953c-0.78061,-0.86459 -1.8528,-1.577 -2.9932,-2.0737c-0.38278,-0.16648 -0.78036,-0.30954 -1.1738,-0.43041c-0.19089,-0.0584 -0.39618,-0.10918 -0.58688,-0.15651c-0.19659,-0.04863 -0.39243,-0.10032 -0.58698,-0.13694c-0.58368,-0.11012 -1.1512,-0.15964 -1.6825,-0.15651l0,-0.0002l0,-0.00001l-0.0002,0.00051z" id="path3855"/>
    <path d="m344.69243,169.998031c-0.94443,0.00562 -2.9556,0.19164 -4.0496,0.58691l-2.1911,0.9391l5.4191,22.44l-78.136,0.1761c-48.808,0.10356 -104.25,-7.2017 -145.83,-5.9474c-41.577,1.2544 -95.235,17.529 -95.235,17.529l-8.5688,2.3672c-12.052,3.3157 -16.101,60.955 -16.101,104.41c0,0.69679 0.01668,1.4105 0.01957,2.1129c-0.00289,0.70235 -0.01957,1.4161 -0.01957,2.1129c0,43.456 4.0488,101.1 16.101,104.41l8.5688,2.3672s53.658,16.275 95.235,17.529c41.577,1.2544 97.018,-6.0509 145.83,-5.9474l78.136,0.1761l-5.4191,22.44l2.1911,0.9391c1.0941,0.39529 3.1052,0.5813 4.0496,0.58691c0.53125,0.00314 1.0988,-0.04657 1.6825,-0.15652c0.19452,-0.03656 0.39035,-0.08838 0.58691,-0.13693c0.19064,-0.04718 0.396,-0.09821 0.58688,-0.15652c0.39343,-0.1206 0.79102,-0.26422 1.1738,-0.43039c1.1404,-0.49582 2.2126,-1.1912 2.9932,-2.0542c0.00629,-0.00671 0.01361,-0.01303 0.01953,-0.01953c0.39117,-0.4361 0.69635,-0.90952 0.9195,-1.4282l7.6102,-19.564l68.824,0.1565c14.962,7.4764 28.492,6.7103 46.072,6.7103c83.419,0 117.46,-54.206 117.07,-126.07c0,-0.48845 -0.01184,-0.98013 -0.01941,-1.4673c0.00757,-0.48715 0.01941,-0.97884 0.01941,-1.4673c0.39325,-71.862 -33.649,-126.07 -117.07,-126.07c-17.58,0 -31.11,-0.76604 -46.072,6.7103l-68.824,0.1565l-7.6102,-19.564c-0.22314,-0.51862 -0.52832,-0.99205 -0.9195,-1.4282c-0.00626,-0.00651 -0.01334,-0.01289 -0.01953,-0.01952c-0.78061,-0.86298 -1.8528,-1.5584 -2.9932,-2.0542c-0.38278,-0.16618 -0.78036,-0.30977 -1.1738,-0.4304c-0.19086,-0.0583 -0.39618,-0.10931 -0.58688,-0.15652c-0.19656,-0.04857 -0.3924,-0.10036 -0.58691,-0.13694c-0.58371,-0.10992 -1.1512,-0.15963 -1.6825,-0.15651l0,-0.0001l0,0.00003l0,0.00603z" fill="#007f00" id="path2853"/>
    <g id="svg_1" fill-opacity="0.996">
     <path d="m213.10243,396.340031c-20.887,0 -40.885,1.1269 -59.356,3.1693c16.064,30.497 61.342,18.947 128.69,19.74c31.106,0.36606 56.057,1.1765 76.082,1.4868c-29.524,-14.608 -83.593,-24.396 -145.42,-24.396l0.004,-0.0001z" fill="#262626" opacity="0.9" id="path3643"/>
     <path d="m213.10243,396.340031c-2.0074,0 -3.996,0.01849 -5.9864,0.03915c0.51225,10.124 4.0242,18.942 9.1361,24.318c2.9245,-0.04733 5.9443,-0.12305 9.0383,-0.21521c-5.3625,-5.1287 -9.1356,-13.916 -9.8404,-24.142c-0.78336,-0.00311 -1.5618,0 -2.3476,0l0,0.00006z" opacity="0.5" id="path3658"/>
    </g>
    <path fill="#212121" stroke-width="5" stroke="#191919" d="m581.64243,378.970031l-3.1888,0.3717c-13.488,1.573 -23.594,16.264 -24.591,34.139l-0.2348,4.4605l3.2866,-3.0323c9.9472,-9.1905 17.719,-20.351 23.418,-33.024l1.3107,-2.915l-0.0007,0.0001z" id="path3707"/>
    <path fill="none" stroke-width="6" stroke-linecap="round" stroke="#292929" d="m452.96243,385.860031s49.881,-14.146 65.97,-20.022c16.802,-6.1363 61.889,-24.507 61.889,-24.507s-5.4722,26.588 -19.083,36.259c-48.344,34.35 -145.67,33.714 -145.67,33.714" stroke-linejoin="round" opacity="0.5" id="path3715"/>
    <path d="m507.11243,372.920031l-2.778,1.4673c0.61926,0.72421 1.1241,1.5204 1.4869,2.4063c3.0037,7.3353 -6.7211,18.303 -16.825,22.4c-0.32349,0.1312 -1.1349,0.52624 -2.1324,1.0369l8.5297,-2.4259c10.834,-5.2948 17.198,-14.45 14.399,-21.285c-0.57355,-1.4006 -1.487,-2.6081 -2.6802,-3.5997l-0.00006,0l0.00006,0.0001z" fill="url(#linearGradient4149)" id="path3757"/>
    <path d="m512.48243,370.130031l-2.778,1.4673c0.6192,0.72421 1.1241,1.5204 1.4869,2.4063c3.0037,7.3353 -6.7211,18.303 -16.825,22.4c-0.32355,0.1312 -1.135,0.52624 -2.1324,1.0369l8.5297,-2.4259c10.834,-5.2948 17.198,-14.45 14.399,-21.285c-0.57349,-1.4007 -1.4869,-2.6081 -2.6801,-3.5997l-0.00006,0l-0.00004,0.0001z" fill="url(#linearGradient4203)" id="path3787"/>
    <path d="m516.36243,369.250031l-2.778,1.4673c0.6192,0.72421 1.124,1.5204 1.4868,2.4063c3.0037,7.3353 -6.7211,18.303 -16.824,22.4c-0.32355,0.1312 -1.135,0.52624 -2.1324,1.0369l8.5297,-2.4259c10.834,-5.2948 17.198,-14.45 14.399,-21.285c-0.57355,-1.4006 -1.487,-2.6081 -2.6802,-3.5997l-0.00006,0l-0.00084,0.0001z" fill="url(#linearGradient4155)" id="path3752"/>
    <path d="m526.94243,366.570031l-3.8736,1.1542c0.60114,1.0723 1.0358,2.2114 1.2717,3.4236c1.9528,10.038 -13.123,21.463 -26.939,24.102c-2.1254,0.40607 -18.082,5.3689 -20.132,5.5119l0,2.5824l25.942,-7.6052c16.456,-3.4409 28.14,-14.053 26.215,-23.946c-0.37292,-1.9167 -1.2246,-3.6683 -2.4846,-5.2235l-0.00006,0l0.00056,0.0006z" fill="url(#linearGradient4205)" id="path3735"/>
    <path d="m526.94243,366.570031l-3.8736,1.1542c0.60114,1.0723 1.0358,2.2114 1.2717,3.4236c1.9528,10.038 -13.123,21.463 -26.939,24.102c-2.1254,0.40607 -18.082,5.3689 -20.132,5.5119l0,2.5824l25.942,-7.6052c16.456,-3.4409 28.14,-14.053 26.215,-23.946c-0.37292,-1.9167 -1.2246,-3.6683 -2.4846,-5.2235l-0.00006,0l0.00056,0.0006z" fill="url(#linearGradient4207)" id="path3783"/>
    <path d="m499.07243,375.820031l-2.4816,1.3108c0.55316,0.64697 1.0042,1.3582 1.3282,2.1497c2.6833,6.5528 -6.004,16.35 -15.03,20.011c-0.28906,0.11722 -1.0139,0.47015 -1.905,0.92627l7.6198,-2.1671c9.6783,-4.73 15.363,-12.909 12.863,-19.015c-0.51233,-1.2512 -1.3283,-2.3299 -2.3942,-3.2157l-0.00012,0l-0.00008,0.00003z" fill="url(#linearGradient4209)" id="path3799"/>
    <path d="m490.42243,378.050031l-2.4816,1.3108c0.5531,0.64691 1.0041,1.3582 1.3282,2.1496c2.6833,6.5528 -6.004,16.35 -15.03,20.011c-0.28894,0.11725 -1.0138,0.47015 -1.9049,0.92627l7.6198,-2.1671c9.6783,-4.73 15.363,-12.909 12.863,-19.015c-0.51239,-1.2512 -1.3283,-2.3299 -2.3942,-3.2157l-0.0001,-0.0001l-0.0002,0.00023z" fill="url(#linearGradient4153)" id="path3803"/>
    <path d="m108.51243,390.380031c5.1917,-1.2667 9.6945,-0.92578 12.394,3.623l-1.5609,11.204c-4.3041,3.8647 -8.6082,3.0994 -12.912,0.09732l2.0792,-14.924l0.00001,0l-0.00031,-0.00032z" fill="url(#linearGradient4211)" id="rect3861"/>
    <path d="m121.20243,392.430031c5.1023,-0.75763 9.4949,-0.35861 11.796,3.4483l-1.4857,10.664c-4.0592,1.8623 -8.1278,3.2614 -12.29,0.09259l1.979,-14.205l-0.00001,0l0.00071,0.00011z" fill="url(#linearGradient4213)" id="path3864"/>
    <path fill="#191919" stroke-width="5" d="m213.10243,394.780031c-20.943,0 -41,1.1202 -59.532,3.1693l-2.2889,0.2543l1.076,2.0346c4.1764,7.9284 10.368,13.218 18.194,16.551c7.8259,3.3331 17.261,4.7658 28.23,5.2822c21.938,1.0328 50.054,-1.6472 83.634,-1.2521c31.088,0.36584 56.035,1.1762 76.082,1.4868l0.7043,-2.9737c-29.955,-14.822 -84.112,-24.552 -146.1,-24.552l0.0006,-0.0004zm0,3.1302c57.076,0 107.52,8.4381 137.78,21.109c-18.751,-0.36462 -40.825,-1.0054 -68.433,-1.3304c-33.767,-0.39734 -61.963,2.2864 -83.516,1.2716c-10.777,-0.50738 -19.887,-1.9441 -27.174,-5.0474c-6.5441,-2.7871 -11.572,-6.983 -15.338,-13.088c17.722,-1.8675 36.77,-2.915 56.675,-2.915l0.006,0.0002z" opacity="0.9" id="path4025"/>
    <g id="svg_2" fill-opacity="0.996">
     <g id="svg_3" fill="#262626">
      <g id="svg_4" stroke="#191919" stroke-width="5">
       <path d="m125.56243,241.170031l-48.674,7.8059c-16.997,2.7258 -30.643,30.534 -31.928,65.636c1.2848,35.102 14.93,62.91 31.928,65.636l48.674,7.8059c8.3237,0 15.025,-6.7011 15.025,-15.025l0,-116.83c0,-8.3238 -6.701,-15.025 -15.025,-15.025l0.00001,0l-0.00001,-0.0038z" opacity="0.9" id="rect2864"/>
       <path d="m395.67243,219.750031c-1.8588,0 -3.6894,0.20795 -5.4973,0.60648c-0.0065,-0.00627 -0.01303,-0.01315 -0.01953,-0.01952l-39.968,7.7081c-11.098,4.1348 -20.033,8.9348 -20.033,20.033l0,133.07c0,11.098 8.9347,15.898 20.033,20.033l39.968,7.7081c0.00659,-0.00634 0.01303,-0.01321 0.01953,-0.01953c1.8079,0.39856 3.6385,0.60651 5.4973,0.60651c28.419,0 51.459,-35.911 51.53,-94.864c-0.07141,-58.953 -23.111,-94.864 -51.53,-94.864l0,-0.00007l0,0.00193z" opacity="0.9" id="path3703"/>
      </g>
      <path d="m213.10243,232.890031c-20.887,0 -40.885,-1.1269 -59.356,-3.1693c16.064,-30.497 61.342,-18.947 128.69,-19.74c31.106,-0.36606 56.057,-1.1765 76.082,-1.4868c-29.524,14.608 -83.593,24.396 -145.42,24.396l0.004,0.0001z" opacity="0.9" id="path4157"/>
     </g>
     <path d="m213.10243,232.890031c-2.0074,0 -3.996,-0.01845 -5.9864,-0.03912c0.51225,-10.124 4.0242,-18.942 9.1361,-24.318c2.9245,0.04733 5.9443,0.12303 9.0383,0.2152c-5.3625,5.1287 -9.1356,13.916 -9.8404,24.142c-0.78336,0.00312 -1.5618,0 -2.3476,0l0,-0.00008z" opacity="0.5" id="path4159"/>
    </g>
    <path fill="#212121" stroke-width="5" stroke="#191919" d="m581.64243,250.250031l-3.1888,-0.3717c-13.488,-1.573 -23.594,-16.264 -24.591,-34.139l-0.2348,-4.4605l3.2866,3.0324c9.9472,9.1905 17.719,20.351 23.418,33.024l1.3107,2.915l-0.0007,-0.0002z" id="path4161"/>
    <path fill="none" stroke-width="6" stroke-linecap="round" stroke="#292929" d="m452.96243,243.370031s49.881,14.146 65.97,20.022c16.802,6.1363 61.889,24.507 61.889,24.507s-5.4722,-26.588 -19.083,-36.259c-48.344,-34.35 -145.67,-33.714 -145.67,-33.714" stroke-linejoin="round" opacity="0.5" id="path4163"/>
    <path d="m507.11243,256.300031l-2.778,-1.4673c0.61926,-0.7242 1.1241,-1.5204 1.4869,-2.4063c3.0037,-7.3353 -6.7211,-18.303 -16.825,-22.4c-0.32349,-0.13123 -1.1349,-0.52628 -2.1324,-1.0369l8.5297,2.4259c10.834,5.2948 17.198,14.45 14.399,21.285c-0.57355,1.4007 -1.487,2.6081 -2.6802,3.5997l-0.00006,0l0.00006,-0.0001z" fill="url(#linearGradient4185)" id="path4165"/>
    <path d="m512.48243,259.090031l-2.778,-1.4673c0.6192,-0.7242 1.1241,-1.5204 1.4869,-2.4063c3.0037,-7.3353 -6.7211,-18.303 -16.825,-22.4c-0.32355,-0.13121 -1.135,-0.52628 -2.1324,-1.0369l8.5297,2.4259c10.834,5.2948 17.198,14.45 14.399,21.285c-0.57349,1.4007 -1.4869,2.6081 -2.6801,3.5997l-0.00006,0l-0.00004,-0.0001z" fill="url(#linearGradient4187)" id="path4167"/>
    <path d="m516.36243,259.980031l-2.778,-1.4673c0.6192,-0.7242 1.124,-1.5204 1.4868,-2.4063c3.0037,-7.3353 -6.7211,-18.303 -16.824,-22.4c-0.32355,-0.13121 -1.135,-0.52628 -2.1324,-1.0369l8.5297,2.4259c10.834,5.2948 17.198,14.45 14.399,21.285c-0.57355,1.4007 -1.487,2.6081 -2.6802,3.5997l-0.00006,0l-0.00084,-0.0001z" fill="url(#linearGradient4189)" id="path4169"/>
    <path d="m526.94243,262.650031l-3.8736,-1.1543c0.60114,-1.0723 1.0358,-2.2114 1.2717,-3.4236c1.9528,-10.038 -13.123,-21.463 -26.939,-24.102c-2.1254,-0.40607 -18.082,-5.3689 -20.132,-5.5119l0,-2.5824l25.942,7.6052c16.456,3.4409 28.14,14.053 26.215,23.946c-0.37292,1.9167 -1.2246,3.6683 -2.4846,5.2235l-0.00006,0l0.00056,-0.0005z" fill="url(#linearGradient4191)" id="path4171"/>
    <path d="m526.94243,262.650031l-3.8736,-1.1543c0.60114,-1.0723 1.0358,-2.2114 1.2717,-3.4236c1.9528,-10.038 -13.123,-21.463 -26.939,-24.102c-2.1254,-0.40607 -18.082,-5.3689 -20.132,-5.5119l0,-2.5824l25.942,7.6052c16.456,3.4409 28.14,14.053 26.215,23.946c-0.37292,1.9167 -1.2246,3.6683 -2.4846,5.2235l-0.00006,0l0.00056,-0.0005z" fill="url(#linearGradient4193)" id="path4173"/>
    <path d="m499.07243,253.410031l-2.4816,-1.3108c0.55316,-0.64694 1.0042,-1.3582 1.3282,-2.1496c2.6833,-6.5528 -6.004,-16.35 -15.03,-20.011c-0.28906,-0.11723 -1.0139,-0.47014 -1.905,-0.92625l7.6198,2.1671c9.6783,4.73 15.363,12.909 12.863,19.015c-0.51233,1.2512 -1.3283,2.3299 -2.3942,3.2157l-0.00012,0l-0.00008,-0.00015z" fill="url(#linearGradient4195)" id="path4175"/>
    <path d="m490.42243,251.170031l-2.4816,-1.3108c0.5531,-0.64693 1.0041,-1.3582 1.3282,-2.1496c2.6833,-6.5528 -6.004,-16.35 -15.03,-20.011c-0.28894,-0.11722 -1.0138,-0.47012 -1.9049,-0.92625l7.6198,2.1671c9.6783,4.73 15.363,12.909 12.863,19.015c-0.51239,1.2512 -1.3283,2.3299 -2.3942,3.2157l-0.0001,0l-0.0002,-0.00015z" fill="url(#linearGradient4197)" id="path4177"/>
    <path d="m108.51243,238.840031c5.1917,1.2667 9.6945,0.9258 12.394,-3.623l-1.5609,-11.204c-4.3041,-3.8647 -8.6082,-3.0994 -12.912,-0.09732l2.0792,14.924l0.00001,0l-0.00031,0.00032z" fill="url(#linearGradient4199)" id="path4179"/>
    <path d="m121.20243,236.800031c5.1023,0.75763 9.4949,0.3586 11.796,-3.4483l-1.4857,-10.664c-4.0592,-1.8623 -8.1278,-3.2614 -12.29,-0.09262l1.979,14.205l-0.00001,0l0.00071,-0.00008z" fill="url(#linearGradient4201)" id="path4181"/>
    <path fill="#191919" stroke-width="5" d="m213.10243,234.440031c-20.943,0 -41,-1.1202 -59.532,-3.1693l-2.2889,-0.2543l1.076,-2.0346c4.1764,-7.9284 10.368,-13.218 18.194,-16.551c7.8259,-3.3331 17.261,-4.7658 28.23,-5.2822c21.938,-1.0328 50.054,1.6472 83.634,1.2521c31.088,-0.36583 56.035,-1.1762 76.082,-1.4868l0.7043,2.9737c-29.955,14.822 -84.112,24.552 -146.1,24.552l0.0006,0.0004zm0,-3.1302c57.076,0 107.52,-8.4381 137.78,-21.109c-18.751,0.36459 -40.825,1.0054 -68.433,1.3303c-33.767,0.39734 -61.963,-2.2864 -83.516,-1.2716c-10.777,0.50738 -19.887,1.9441 -27.174,5.0474c-6.5441,2.7872 -11.572,6.983 -15.338,13.088c17.722,1.8675 36.77,2.915 56.675,2.915l0.006,-0.0001z" opacity="0.9" id="path4183"/>
   </g>
  </g>
 </g>
</svg>