<?xml version="1.0" encoding="UTF-8" standalone="no"?>
<svg width="640" xmlns="http://www.w3.org/2000/svg" xmlns:xlink="http://www.w3.org/1999/xlink" height="480">
 <defs>
  <linearGradient id="linearGradient4213" y2="34.165" xlink:href="#linearGradient3759" x2="6.1094" y1="34.382" x1="7.7067"/>
  <linearGradient id="linearGradient4201" y2="27.725" xlink:href="#linearGradient3759" x2="6.1094" y1="27.507" x1="7.7067"/>
  <linearGradient id="linearGradient4197" y2="18.726" xlink:href="#linearGradient3759" x2="13.615" y1="18.58" x1="16.492"/>
  <linearGradient id="linearGradient4199" y2="25.953" xlink:href="#linearGradient3759" x2="5.2867" y1="25.448" x1="6.8841"/>
  <linearGradient id="linearGradient4203" y2="19.487" xlink:href="#linearGradient3759" x2="15.212" y1="19.484" x1="15.711"/>
  <linearGradient id="linearGradient4205" y2="14.758" xlink:href="#linearGradient3759" x2="7.2757" y1="14.949" x1="7.5329"/>
  <linearGradient id="linearGradient4211" y2="31.194" xlink:href="#linearGradient3759" x2="5.2867" y1="31.699" x1="6.8841"/>
  <linearGradient id="linearGradient4207" y2="13.825" xlink:href="#linearGradient3759" x2="6.3633" y1="15.211" x1="7.2175"/>
  <linearGradient id="linearGradient4209" y2="21.923" xlink:href="#linearGradient3759" x2="13.57" y1="21.877" x1="17.077"/>
  <linearGradient id="linearGradient4195" y2="18.924" xlink:href="#linearGradient3759" x2="13.57" y1="18.97" x1="17.077"/>
  <linearGradient id="linearGradient4193" y2="13.611" xlink:href="#linearGradient3759" x2="6.3633" y1="12.224" x1="7.2175"/>
  <linearGradient id="linearGradient4153" y2="22.12" xlink:href="#linearGradient3759" x2="13.615" y1="22.267" x1="16.492"/>
  <linearGradient id="linearGradient3759">
   <stop id="stop3761" stop-color="#1a1a1a" offset="0"/>
   <stop id="stop3763" stop-color="#f30000" stop-opacity="0" offset="1"/>
  </linearGradient>
  <linearGradient id="linearGradient4149" y2="19.593" xlink:href="#linearGradient3759" x2="13.695" y1="19.872" x1="14.678"/>
  <linearGradient id="linearGradient4155" y2="19.595" xlink:href="#linearGradient3759" x2="12.75" y1="19.8" x1="15.47"/>
  <linearGradient id="linearGradient4185" y2="17.003" xlink:href="#linearGradient3759" x2="13.695" y1="16.724" x1="14.678"/>
  <linearGradient id="linearGradient4191" y2="12.678" xlink:href="#linearGradient3759" x2="7.2757" y1="12.487" x1="7.5329"/>
  <linearGradient id="linearGradient4187" y2="17.11" xlink:href="#linearGradient3759" x2="15.212" y1="17.112" x1="15.711"/>
  <linearGradient id="linearGradient4189" y2="17.001" xlink:href="#linearGradient3759" x2="12.75" y1="16.796" x1="15.47"/>
 </defs>
 <g id="layer1" externalResourcesRequired="false">
  <g id="g3890" externalResourcesRequired="false">
   <path id="path3855" d="m367.69 93.998c-0.94443 0.005623-2.9556 0.19088-4.0496 0.58691l-2.1911 0.9391 5.4191 22.498-78.136 0.1761c-1.5252 0.00312-3.0598-0.008751-4.5974-0.019524-3.0751-0.021477-6.1758-0.065453-9.2927-0.13694-4.5655-0.10474-9.1832-0.25851-13.812-0.44997-0.24783-0.010277-0.49542-0.028618-0.74341-0.039131-9.3482-0.39452-18.786-0.93385-28.191-1.526-12.725-0.80303-25.367-1.695-37.64-2.4259-9.0951-0.5417-17.987-0.98888-26.528-1.2521-5.8654-0.18076-11.559-0.2858-17.059-0.25432-2.7018 0.01548-5.3638 0.058418-7.9623 0.13695-2.5985 0.07856-5.2463 0.22242-7.9232 0.41084-1.3385 0.094177-2.678 0.19422-4.0301 0.31302-4.0498 0.35584-8.1667 0.82726-12.266 1.3694-0.00631 0.00061-0.013199-0.00061-0.019524 0-2.7374 0.3622-5.4581 0.76723-8.1775 1.1934s-5.4299 0.87511-8.0993 1.3499c-2.663 0.47365-5.3028 0.97998-7.8841 1.4868-0.006256 0.001251-0.013268-0.001259-0.019539 0-1.2936 0.25409-2.5478 0.50345-3.8149 0.76297-3.7947 0.77732-7.471 1.5752-10.956 2.3672-0.006317 0.001259-0.013206-0.001266-0.019539 0-2.3266 0.52894-4.5621 1.0487-6.7102 1.5651-4.297 1.0319-8.2107 2.025-11.601 2.915-5.0857 1.335-9.0039 2.4586-11.327 3.1302-1.5486 0.44809-2.3867 0.70428-2.3867 0.70428l-8.5688 2.3476c-0.56493 0.1557-1.1132 0.43376-1.6433 0.82169-0.18012 0.13178-0.35204 0.27289-0.52821 0.43039-0.68838 0.61328-1.3466 1.4215-1.9759 2.4063-0.002869 0.004395 0.00288 0.015198 0 0.019531-0.31324 0.49127-0.64009 1.027-0.93904 1.6042-0.002628 0.005005 0.002632 0.014526 0 0.019531-0.29898 0.57826-0.59545 1.1984-0.88036 1.8585-0.002319 0.005615 0.002319 0.013916 0 0.019531-2.2957 5.3272-4.1444 13.229-5.5951 22.674-0.000938 0.006271 0.00094 0.01326 0 0.019516-0.022509 0.14659-0.036369 0.30264-0.058699 0.44997-0.3159 2.0856-0.62104 4.2559-0.89991 6.4756-0.019081 0.15192-0.039791 0.2975-0.058691 0.44997-0.31401 2.5312-0.59268 5.135-0.8608 7.8059-0.000629 0.006256 0.00062 0.013214 0 0.019516-0.13368 1.3325-0.26864 2.6887-0.39127 4.0497-0.00057 0.006271 0.00058 0.013062 0 0.019531-0.12259 1.3612-0.24038 2.7228-0.35214 4.1084-0.000509 0.006256 0.000521 0.013062 0 0.019531-0.22396 2.7781-0.42456 5.6004-0.60646 8.4515-0.00042 0.006302 0.000401 0.013077 0 0.019516-0.54628 8.5668-0.91375 17.397-1.1151 26.02-0.000158 0.0065 0.000151 0.012955 0 0.019516-0.13424 5.7529-0.19571 11.402-0.19571 16.844 0 0.60579 0.01725 1.2288 0.019569 1.839-0.002319 0.61015-0.019569 1.2332-0.019569 1.839 0 5.4423 0.06146 11.092 0.19565 16.844 0.00016 0.006561-0.000151 0.013031 0 0.019531 0.20135 8.6229 0.56884 17.453 1.1151 26.02 0.000401 0.00647-0.00041 0.013214 0 0.019531 0.1819 2.8511 0.3825 5.6734 0.60646 8.4515 0.000519 0.00647-0.000521 0.013245 0 0.019531 0.11176 1.3856 0.22956 2.7472 0.35214 4.1084 0.000582 0.006439-0.000568 0.013214 0 0.019501 0.12263 1.361 0.25758 2.7172 0.39128 4.0497 0.00061 0.006378-0.000629 0.013214 0 0.019531 0.2681 2.6709 0.54679 5.2748 0.86078 7.8059 0.018902 0.15244 0.039612 0.29804 0.058701 0.44995 0.27886 2.2196 0.58401 4.39 0.89991 6.4756 0.02232 0.14734 0.03619 0.30341 0.058691 0.44998 0.00094 0.006287-0.00094 0.013458 0 0.019531 1.4508 9.4453 3.2995 17.347 5.5952 22.674 0.002312 0.005615-0.002319 0.01413 0 0.019531 0.2849 0.66019 0.58137 1.2803 0.88034 1.8585 0.002628 0.005005-0.002632 0.014465 0 0.019531 0.29896 0.57724 0.6258 1.113 0.93905 1.6042 0.002892 0.004395-0.00288 0.015137 0 0.019531 0.62931 0.9848 1.2875 1.7931 1.9759 2.4063 0.17617 0.1575 0.34809 0.29862 0.52822 0.43039 0.53016 0.38791 1.0784 0.66598 1.6433 0.82169l8.5688 2.3476s0.83815 0.2562 2.3868 0.70428c2.3233 0.67163 6.2416 1.7952 11.327 3.1302 3.3904 0.89002 7.3041 1.8831 11.601 2.915 2.1482 0.51636 4.3836 1.0361 6.7102 1.5651 0.006393 0.001251 0.013222-0.001282 0.019539 0 3.4846 0.79205 7.1609 1.5899 10.956 2.3672 1.2671 0.25952 2.5213 0.50888 3.8149 0.763 0.006332 0.001251 0.01326-0.001282 0.019539 0 2.5813 0.50684 5.2211 1.0132 7.8841 1.4868 2.6694 0.47482 5.3798 0.92374 8.0993 1.3499 2.7194 0.42615 5.4402 0.83118 8.1775 1.1934 0.006348 0.00061 0.013206-0.00061 0.019531 0 4.0996 0.54221 8.2165 1.0136 12.266 1.3695 1.352 0.11877 2.6916 0.21881 4.0301 0.31302 2.6769 0.18842 5.3247 0.33228 7.9232 0.41083 2.5986 0.078552 5.2605 0.12146 7.9623 0.13693 5.5003 0.031494 11.194-0.073547 17.059-0.2543 8.5407-0.26321 17.433-0.71039 26.528-1.2521 12.273-0.73099 24.915-1.6229 37.64-2.4259 9.4053-0.5921 18.843-1.1314 28.191-1.526 0.24796-0.010498 0.49554-0.028839 0.74341-0.039124 4.6286-0.19147 9.2464-0.34524 13.812-0.44995 3.1168-0.071503 6.2175-0.11548 9.2927-0.13696 1.5375-0.010773 3.0722-0.022858 4.5974-0.019531l78.136 0.1761-5.419 22.498 2.1911 0.9391c1.0941 0.39603 3.1052 0.5813 4.0496 0.58691 0.53122 0.003143 1.0987-0.046387 1.6825-0.15649 0.19449-0.036621 0.39035-0.088318 0.58691-0.13696 0.19067-0.047333 0.39603-0.098083 0.58691-0.15649 0.3934-0.12088 0.79102-0.26392 1.1738-0.43042 1.1404-0.49676 2.2126-1.2092 2.9932-2.0737 0.006256-0.006683 0.013611-0.012909 0.019531-0.019531 0.39114-0.43689 0.69632-0.90854 0.9195-1.4282l7.6102-19.603 68.824 0.1565c0.46756 0.23407 0.92407 0.46646 1.389 0.68472 1.8651 0.87616 3.7005 1.6258 5.5364 2.2694 0.91544 0.32089 1.8266 0.61069 2.7389 0.88037 3.1928 0.94373 6.378 1.5974 9.6056 2.0346 1.8444 0.24997 3.7098 0.43442 5.5952 0.56735 0.9426 0.066406 1.8994 0.11276 2.8563 0.15652 1.9138 0.087616 3.843 0.13324 5.8299 0.15649 3.9738 0.046387 8.1256 0 12.521 0 6.5171 0 12.722-0.33258 18.644-0.97818 2.3686-0.25827 4.6897-0.56186 6.9646-0.9195 4.5498-0.71527 8.9075-1.6395 13.088-2.7389 1.0451-0.27484 2.0883-0.56262 3.1106-0.86078 3.067-0.89447 6.0179-1.894 8.8818-2.9933 0.95453-0.36639 1.9044-0.72653 2.8367-1.1151 1.8646-0.77722 3.6824-1.6008 5.4582-2.465 0.88794-0.43213 1.7752-0.87686 2.641-1.3303 1.7319-0.90698 3.4224-1.8656 5.067-2.8563 0.82227-0.49533 1.6252-1.0101 2.4258-1.5259 4.0031-2.5794 7.7398-5.3999 11.21-8.4711 2.7725-2.4538 5.385-5.0583 7.8254-7.8059 0.003174-0.003754-0.003113-0.0159 0-0.019531 0.60754-0.6842 1.2126-1.372 1.7999-2.0737 0.003113-0.003754-0.003113-0.015717 0-0.019531 0.5871-0.70175 1.1743-1.4134 1.7412-2.1324 0.003113-0.003754-0.003174-0.015594 0-0.019531 1.7063-2.165 3.3262-4.3941 4.8518-6.7103 0.003113-0.004395-0.003174-0.015015 0-0.019531 0.50635-0.76914 1.0197-1.5428 1.5064-2.3281 0.003174-0.005005-0.003113-0.014893 0-0.019531 1.4653-2.3652 2.859-4.7907 4.1475-7.2972 0.002563-0.005005-0.002502-0.014465 0-0.019531 0.42761-0.83209 0.84375-1.6766 1.2521-2.5237 0.002563-0.005005-0.002502-0.014313 0-0.019531 0.4082-0.8472 0.82385-1.7009 1.213-2.5628 0.002563-0.005615-0.002502-0.014221 0-0.019531 0.78033-1.7294 1.5263-3.4756 2.2302-5.2626 0.002502-0.005615-0.002502-0.014038 0-0.019531 0.35077-0.89078 0.68536-1.7951 1.0173-2.6998 0.001831-0.005615-0.001892-0.013885 0-0.019531 0.33179-0.90476 0.66504-1.8205 0.97815-2.7389 0.31305-0.91849 0.62506-1.8462 0.9195-2.778 0.001892-0.005615-0.001831-0.013763 0-0.019531 0.29437-0.93192 0.58496-1.8722 0.86084-2.8172 0.001831-0.006287-0.001892-0.01358 0-0.019501 0.2757-0.94507 0.54468-1.8984 0.80206-2.8563 0.001892-0.006256-0.001831-0.01358 0-0.019531 0.77515-2.8861 1.4827-5.8259 2.0933-8.8232v-0.019501c0.20258-0.99503 0.38263-2.0061 0.56738-3.0128v-0.019531c1.2988-7.0857 2.1674-14.438 2.6019-22.048 0.000305-0.00647-0.000427-0.013229 0-0.019531 0.06134-1.0817 0.11188-2.1759 0.15649-3.2671 0.000244-0.006454-0.000244-0.013214 0-0.019516 0.089233-2.1892 0.15442-4.3868 0.17602-6.6125 0-0.00647-0.000061-0.013229 0-0.019531 0.010681-1.1162 0.006287-2.24 0-3.3649 0-0.39804-0.013733-0.79596-0.019409-1.1934 0.006287-0.39743 0.019409-0.79535 0.019409-1.1934 0.006287-1.125 0.010681-2.2488 0-3.3649-0.000061-0.006378 0-0.013062 0-0.019516-0.021301-2.2258-0.086792-4.4233-0.17602-6.6125-0.000244-0.006393 0.000244-0.013077 0-0.019531-0.044434-1.0912-0.095154-2.1854-0.15649-3.2671-0.000427-0.006378 0.000305-0.013062 0-0.019516-0.43457-7.6106-1.3031-14.962-2.6019-22.048v-0.019516c-0.18475-1.0067-0.36481-2.0178-0.56738-3.0128v-0.019531c-0.6106-2.9973-1.3182-5.9371-2.0933-8.8232-0.001831-0.006271 0.001892-0.013336 0-0.019531-0.25738-0.9579-0.52637-1.9112-0.80206-2.8563-0.001892-0.006271 0.001831-0.013336 0-0.019531-0.27588-0.94498-0.56647-1.8852-0.86084-2.8172-0.001831-0.005615 0.001892-0.013947 0-0.019531-0.29443-0.93182-0.60644-1.8596-0.9195-2.778-0.31311-0.91836-0.64636-1.8341-0.97815-2.7389-0.001892-0.0056 0.001831-0.013947 0-0.019531-0.33197-0.90465-0.66656-1.809-1.0173-2.6998-0.002502-0.0056 0.002502-0.013931 0-0.019516-0.70392-1.7871-1.4499-3.5332-2.2302-5.2626-0.002502-0.00502 0.002563-0.013962 0-0.019547-0.38904-0.86192-0.80475-1.7156-1.213-2.5628-0.002502-0.005005 0.002563-0.014587 0-0.019531-0.40832-0.84711-0.82446-1.6916-1.2521-2.5237-0.002502-0.00502 0.002563-0.014603 0-0.019547-1.2884-2.5065-2.6822-4.932-4.1475-7.2972-0.003113-0.004395 0.003174-0.014572 0-0.019531-0.48663-0.78525-1-1.5589-1.5064-2.3281-0.003174-0.004395 0.003113-0.015137 0-0.019516-1.5255-2.3163-3.1454-4.5454-4.8518-6.7103-0.003174-0.003738 0.003113-0.015869 0-0.019531-0.56696-0.71898-1.1541-1.4307-1.7412-2.1324-0.003113-0.003723 0.003113-0.015839 0-0.019501-0.58722-0.70175-1.1923-1.3896-1.7999-2.0738-0.003113-0.003738 0.003174-0.015839 0-0.019531-2.4404-2.7476-5.0529-5.3521-7.8254-7.8059-3.4702-3.0712-7.2068-5.8917-11.21-8.4711-0.8006-0.51587-1.6036-1.0306-2.4258-1.526-1.6445-0.99072-3.3351-1.9493-5.067-2.8563-0.86584-0.45347-1.753-0.8982-2.641-1.3303-1.7759-0.86426-3.5937-1.6878-5.4582-2.465-0.93231-0.38861-1.8821-0.74873-2.8367-1.1151-2.8639-1.0992-5.8149-2.0988-8.8818-2.9932-1.0223-0.29816-2.0655-0.58596-3.1106-0.8608-4.1805-1.0994-8.5382-2.0237-13.088-2.7389-2.2749-0.35766-4.596-0.66123-6.9646-0.9195-5.9214-0.64644-12.127-0.97898-18.644-0.97898-4.3951 0-8.5469-0.046387-12.521 0-1.9869 0.02327-3.9161 0.068893-5.8299 0.1565-0.95688 0.043762-1.9136 0.090103-2.8563 0.15651-1.8853 0.13294-3.7507 0.31738-5.5952 0.56735-3.2276 0.43728-6.4129 1.0909-9.6056 2.0346-0.91226 0.26968-1.8234 0.55946-2.7389 0.88036-1.836 0.64354-3.6714 1.3932-5.5364 2.2694-0.46497 0.21825-0.92142 0.45064-1.389 0.68474l-68.824 0.1565-7.6102-19.603c-0.22314-0.51962-0.52832-0.99123-0.9195-1.4282-0.006256-0.006569-0.013336-0.012901-0.019531-0.019531-0.78061-0.86459-1.8528-1.577-2.9932-2.0737-0.38278-0.16648-0.78036-0.30954-1.1738-0.43041-0.19089-0.058395-0.39618-0.10918-0.58688-0.15651-0.19659-0.04863-0.39243-0.10032-0.58698-0.13694-0.58368-0.11012-1.1512-0.15964-1.6825-0.15651v-0.0002-0.000008z" fill-opacity=".996" stroke="#191919" stroke-width="14"/>
   <path id="path2853" fill="#007f00" d="m367.69 93.998c-0.94443 0.005623-2.9556 0.19164-4.0496 0.58691l-2.1911 0.9391 5.4191 22.44-78.136 0.1761c-48.808 0.10356-104.25-7.2017-145.83-5.9474-41.577 1.2544-95.235 17.529-95.235 17.529l-8.5688 2.3672c-12.052 3.3157-16.101 60.955-16.101 104.41 0 0.69679 0.01668 1.4105 0.019569 2.1129-0.00289 0.70235-0.019569 1.4161-0.019569 2.1129 0 43.456 4.0488 101.1 16.101 104.41l8.5688 2.3672s53.658 16.275 95.235 17.529c41.577 1.2544 97.018-6.0509 145.83-5.9474l78.136 0.1761-5.4191 22.44 2.1911 0.9391c1.0941 0.39529 3.1052 0.5813 4.0496 0.58691 0.53125 0.003143 1.0988-0.04657 1.6825-0.15652 0.19452-0.03656 0.39035-0.088379 0.58691-0.13693 0.19064-0.04718 0.396-0.098206 0.58688-0.15652 0.39343-0.1206 0.79102-0.26422 1.1738-0.43039 1.1404-0.49582 2.2126-1.1912 2.9932-2.0542 0.006287-0.006714 0.013611-0.013031 0.019531-0.019531 0.39117-0.4361 0.69635-0.90952 0.9195-1.4282l7.6102-19.564 68.824 0.1565c14.962 7.4764 28.492 6.7103 46.072 6.7103 83.419 0 117.46-54.206 117.07-126.07 0-0.48845-0.011841-0.98013-0.019409-1.4673 0.007568-0.48715 0.019409-0.97884 0.019409-1.4673 0.39325-71.862-33.649-126.07-117.07-126.07-17.58 0-31.11-0.76604-46.072 6.7103l-68.824 0.1565-7.6102-19.564c-0.22314-0.51862-0.52832-0.99205-0.9195-1.4282-0.006256-0.006508-0.013336-0.012886-0.019531-0.019516-0.78061-0.86298-1.8528-1.5584-2.9932-2.0542-0.38278-0.16618-0.78036-0.30977-1.1738-0.4304-0.19086-0.058304-0.39618-0.10931-0.58688-0.15652-0.19656-0.048569-0.3924-0.10036-0.58691-0.13694-0.58371-0.10992-1.1512-0.15963-1.6825-0.15651v-0.000099 0.000023z"/>
   <g fill-opacity=".996">
    <path id="path3643" opacity=".9" fill="#262626" d="m236.1 320.34c-20.887 0-40.885 1.1269-59.356 3.1693 16.064 30.497 61.342 18.947 128.69 19.74 31.106 0.36606 56.057 1.1765 76.082 1.4868-29.524-14.608-83.593-24.396-145.42-24.396z"/>
    <path id="path3658" opacity=".5" d="m236.1 320.34c-2.0074 0-3.996 0.018494-5.9864 0.039154 0.51225 10.124 4.0242 18.942 9.1361 24.318 2.9245-0.047333 5.9443-0.12305 9.0383-0.21521-5.3625-5.1287-9.1356-13.916-9.8404-24.142-0.78336-0.003113-1.5618 0-2.3476 0z"/>
   </g>
   <path id="path3707" d="m604.64 302.97l-3.1888 0.3717c-13.488 1.573-23.594 16.264-24.591 34.139l-0.2348 4.4605 3.2866-3.0323c9.9472-9.1905 17.719-20.351 23.418-33.024l1.3107-2.915z" stroke="#191919" stroke-width="5" fill="#212121"/>
   <path id="path3715" opacity=".5" stroke-linejoin="round" d="m475.96 309.86s49.881-14.146 65.97-20.022c16.802-6.1363 61.889-24.507 61.889-24.507s-5.4722 26.588-19.083 36.259c-48.344 34.35-145.67 33.714-145.67 33.714" stroke="#292929" stroke-linecap="round" stroke-width="6" fill="none"/>
   <path id="path3757" fill="url(#linearGradient4149)" d="m530.11 296.92l-2.778 1.4673c0.61926 0.72421 1.1241 1.5204 1.4869 2.4063 3.0037 7.3353-6.7211 18.303-16.825 22.4-0.32349 0.1312-1.1349 0.52624-2.1324 1.0369l8.5297-2.4259c10.834-5.2948 17.198-14.45 14.399-21.285-0.57355-1.4006-1.487-2.6081-2.6802-3.5997h-0.000061z"/>
   <path id="path3787" fill="url(#linearGradient4203)" d="m535.48 294.13l-2.778 1.4673c0.6192 0.72421 1.1241 1.5204 1.4869 2.4063 3.0037 7.3353-6.7211 18.303-16.825 22.4-0.32355 0.1312-1.135 0.52624-2.1324 1.0369l8.5297-2.4259c10.834-5.2948 17.198-14.45 14.399-21.285-0.57349-1.4007-1.4869-2.6081-2.6801-3.5997h-0.000061z"/>
   <path id="path3752" fill="url(#linearGradient4155)" d="m539.36 293.25l-2.778 1.4673c0.6192 0.72421 1.124 1.5204 1.4868 2.4063 3.0037 7.3353-6.7211 18.303-16.824 22.4-0.32355 0.1312-1.135 0.52624-2.1324 1.0369l8.5297-2.4259c10.834-5.2948 17.198-14.45 14.399-21.285-0.57355-1.4006-1.487-2.6081-2.6802-3.5997h-0.000061z"/>
   <path id="path3735" fill="url(#linearGradient4205)" d="m549.94 290.57l-3.8736 1.1542c0.60114 1.0723 1.0358 2.2114 1.2717 3.4236 1.9528 10.038-13.123 21.463-26.939 24.102-2.1254 0.40607-18.082 5.3689-20.132 5.5119v2.5824l25.942-7.6052c16.456-3.4409 28.14-14.053 26.215-23.946-0.37292-1.9167-1.2246-3.6683-2.4846-5.2235h-0.000061z"/>
   <path id="path3783" fill="url(#linearGradient4207)" d="m549.94 290.57l-3.8736 1.1542c0.60114 1.0723 1.0358 2.2114 1.2717 3.4236 1.9528 10.038-13.123 21.463-26.939 24.102-2.1254 0.40607-18.082 5.3689-20.132 5.5119v2.5824l25.942-7.6052c16.456-3.4409 28.14-14.053 26.215-23.946-0.37292-1.9167-1.2246-3.6683-2.4846-5.2235h-0.000061z"/>
   <path id="path3799" fill="url(#linearGradient4209)" d="m522.07 299.82l-2.4816 1.3108c0.55316 0.64697 1.0042 1.3582 1.3282 2.1497 2.6833 6.5528-6.004 16.35-15.03 20.011-0.28906 0.11722-1.0139 0.47015-1.905 0.92627l7.6198-2.1671c9.6783-4.73 15.363-12.909 12.863-19.015-0.51233-1.2512-1.3283-2.3299-2.3942-3.2157h-0.000122z"/>
   <path id="path3803" fill="url(#linearGradient4153)" d="m513.42 302.05l-2.4816 1.3108c0.5531 0.64691 1.0041 1.3582 1.3282 2.1496 2.6833 6.5528-6.004 16.35-15.03 20.011-0.28894 0.11725-1.0138 0.47015-1.9049 0.92627l7.6198-2.1671c9.6783-4.73 15.363-12.909 12.863-19.015-0.51239-1.2512-1.3283-2.3299-2.3942-3.2157l-0.0001-0.0001z"/>
   <path id="rect3861" fill="url(#linearGradient4211)" d="m131.51 314.38c5.1917-1.2667 9.6945-0.92578 12.394 3.623l-1.5609 11.204c-4.3041 3.8647-8.6082 3.0994-12.912 0.097321l2.0792-14.924h0.000015z"/>
   <path id="path3864" fill="url(#linearGradient4213)" d="m144.2 316.43c5.1023-0.75763 9.4949-0.35861 11.796 3.4483l-1.4857 10.664c-4.0592 1.8623-8.1278 3.2614-12.29 0.09259l1.979-14.205h-0.000015z"/>
   <path id="path4025" opacity=".9" d="m236.1 318.78c-20.943 0-41 1.1202-59.532 3.1693l-2.2889 0.2543 1.076 2.0346c4.1764 7.9284 10.368 13.218 18.194 16.551 7.8259 3.3331 17.261 4.7658 28.23 5.2822 21.938 1.0328 50.054-1.6472 83.634-1.2521 31.088 0.36584 56.035 1.1762 76.082 1.4868l0.7043-2.9737c-29.955-14.822-84.112-24.552-146.1-24.552zm0 3.1302c57.076 0 107.52 8.4381 137.78 21.109-18.751-0.36462-40.825-1.0054-68.433-1.3304-33.767-0.39734-61.963 2.2864-83.516 1.2716-10.777-0.50738-19.887-1.9441-27.174-5.0474-6.5441-2.7871-11.572-6.983-15.338-13.088 17.722-1.8675 36.77-2.915 56.675-2.915z" stroke-width="5" fill="#191919"/>
   <g fill-opacity=".996">
    <g fill="#262626">
     <g stroke-width="5" stroke="#191919">
      <path id="rect2864" opacity=".9" d="m148.56 165.17l-48.674 7.8059c-16.997 2.7258-30.643 30.534-31.928 65.636 1.2848 35.102 14.93 62.91 31.928 65.636l48.674 7.8059c8.3237 0 15.025-6.7011 15.025-15.025v-116.83c0-8.3238-6.701-15.025-15.025-15.025h0.000015z"/>
      <path id="path3703" opacity=".9" d="m418.67 143.75c-1.8588 0-3.6894 0.20795-5.4973 0.60648-0.0065-0.006271-0.013031-0.013153-0.019531-0.019516l-39.968 7.7081c-11.098 4.1348-20.033 8.9348-20.033 20.033v133.07c0 11.098 8.9347 15.898 20.033 20.033l39.968 7.7081c0.006592-0.006348 0.013031-0.013214 0.019531-0.019531 1.8079 0.39856 3.6385 0.60651 5.4973 0.60651 28.419 0 51.459-35.911 51.53-94.864-0.071411-58.953-23.111-94.864-51.53-94.864v-0.000076z"/>
     </g>
     <path id="path4157" opacity=".9" d="m236.1 156.89c-20.887 0-40.885-1.1269-59.356-3.1693 16.064-30.497 61.342-18.947 128.69-19.74 31.106-0.36606 56.057-1.1765 76.082-1.4868-29.524 14.608-83.593 24.396-145.42 24.396z"/>
    </g>
    <path id="path4159" opacity=".5" d="m236.1 156.89c-2.0074 0-3.996-0.018448-5.9864-0.039124 0.51225-10.124 4.0242-18.942 9.1361-24.318 2.9245 0.047333 5.9443 0.12303 9.0383 0.2152-5.3625 5.1287-9.1356 13.916-9.8404 24.142-0.78336 0.003128-1.5618 0-2.3476 0z"/>
   </g>
   <path id="path4161" d="m604.64 174.25l-3.1888-0.3717c-13.488-1.573-23.594-16.264-24.591-34.139l-0.2348-4.4605 3.2866 3.0324c9.9472 9.1905 17.719 20.351 23.418 33.024l1.3107 2.915z" stroke="#191919" stroke-width="5" fill="#212121"/>
   <path id="path4163" opacity=".5" stroke-linejoin="round" d="m475.96 167.37s49.881 14.146 65.97 20.022c16.802 6.1363 61.889 24.507 61.889 24.507s-5.4722-26.588-19.083-36.259c-48.344-34.35-145.67-33.714-145.67-33.714" stroke="#292929" stroke-linecap="round" stroke-width="6" fill="none"/>
   <path id="path4165" fill="url(#linearGradient4185)" d="m530.11 180.3l-2.778-1.4673c0.61926-0.7242 1.1241-1.5204 1.4869-2.4063 3.0037-7.3353-6.7211-18.303-16.825-22.4-0.32349-0.13123-1.1349-0.52628-2.1324-1.0369l8.5297 2.4259c10.834 5.2948 17.198 14.45 14.399 21.285-0.57355 1.4007-1.487 2.6081-2.6802 3.5997h-0.000061z"/>
   <path id="path4167" fill="url(#linearGradient4187)" d="m535.48 183.09l-2.778-1.4673c0.6192-0.7242 1.1241-1.5204 1.4869-2.4063 3.0037-7.3353-6.7211-18.303-16.825-22.4-0.32355-0.13121-1.135-0.52628-2.1324-1.0369l8.5297 2.4259c10.834 5.2948 17.198 14.45 14.399 21.285-0.57349 1.4007-1.4869 2.6081-2.6801 3.5997h-0.000061z"/>
   <path id="path4169" fill="url(#linearGradient4189)" d="m539.36 183.98l-2.778-1.4673c0.6192-0.7242 1.124-1.5204 1.4868-2.4063 3.0037-7.3353-6.7211-18.303-16.824-22.4-0.32355-0.13121-1.135-0.52628-2.1324-1.0369l8.5297 2.4259c10.834 5.2948 17.198 14.45 14.399 21.285-0.57355 1.4007-1.487 2.6081-2.6802 3.5997h-0.000061z"/>
   <path id="path4171" fill="url(#linearGradient4191)" d="m549.94 186.65l-3.8736-1.1543c0.60114-1.0723 1.0358-2.2114 1.2717-3.4236 1.9528-10.038-13.123-21.463-26.939-24.102-2.1254-0.40607-18.082-5.3689-20.132-5.5119v-2.5824l25.942 7.6052c16.456 3.4409 28.14 14.053 26.215 23.946-0.37292 1.9167-1.2246 3.6683-2.4846 5.2235h-0.000061z"/>
   <path id="path4173" fill="url(#linearGradient4193)" d="m549.94 186.65l-3.8736-1.1543c0.60114-1.0723 1.0358-2.2114 1.2717-3.4236 1.9528-10.038-13.123-21.463-26.939-24.102-2.1254-0.40607-18.082-5.3689-20.132-5.5119v-2.5824l25.942 7.6052c16.456 3.4409 28.14 14.053 26.215 23.946-0.37292 1.9167-1.2246 3.6683-2.4846 5.2235h-0.000061z"/>
   <path id="path4175" fill="url(#linearGradient4195)" d="m522.07 177.41l-2.4816-1.3108c0.55316-0.64694 1.0042-1.3582 1.3282-2.1496 2.6833-6.5528-6.004-16.35-15.03-20.011-0.28906-0.11723-1.0139-0.47014-1.905-0.92625l7.6198 2.1671c9.6783 4.73 15.363 12.909 12.863 19.015-0.51233 1.2512-1.3283 2.3299-2.3942 3.2157h-0.000122z"/>
   <path id="path4177" fill="url(#linearGradient4197)" d="m513.42 175.17l-2.4816-1.3108c0.5531-0.64693 1.0041-1.3582 1.3282-2.1496 2.6833-6.5528-6.004-16.35-15.03-20.011-0.28894-0.11722-1.0138-0.47012-1.9049-0.92625l7.6198 2.1671c9.6783 4.73 15.363 12.909 12.863 19.015-0.51239 1.2512-1.3283 2.3299-2.3942 3.2157h-0.0001z"/>
   <path id="path4179" fill="url(#linearGradient4199)" d="m131.51 162.84c5.1917 1.2667 9.6945 0.9258 12.394-3.623l-1.5609-11.204c-4.3041-3.8647-8.6082-3.0994-12.912-0.097321l2.0792 14.924h0.000015z"/>
   <path id="path4181" fill="url(#linearGradient4201)" d="m144.2 160.8c5.1023 0.75763 9.4949 0.3586 11.796-3.4483l-1.4857-10.664c-4.0592-1.8623-8.1278-3.2614-12.29-0.092621l1.979 14.205h-0.000015z"/>
   <path id="path4183" opacity=".9" d="m236.1 158.44c-20.943 0-41-1.1202-59.532-3.1693l-2.2889-0.2543 1.076-2.0346c4.1764-7.9284 10.368-13.218 18.194-16.551 7.8259-3.3331 17.261-4.7658 28.23-5.2822 21.938-1.0328 50.054 1.6472 83.634 1.2521 31.088-0.36583 56.035-1.1762 76.082-1.4868l0.7043 2.9737c-29.955 14.822-84.112 24.552-146.1 24.552zm0-3.1302c57.076 0 107.52-8.4381 137.78-21.109-18.751 0.36459-40.825 1.0054-68.433 1.3303-33.767 0.39734-61.963-2.2864-83.516-1.2716-10.777 0.50738-19.887 1.9441-27.174 5.0474-6.5441 2.7872-11.572 6.983-15.338 13.088 17.722 1.8675 36.77 2.915 56.675 2.915z" stroke-width="5" fill="#191919"/>
  </g>
 </g>
</svg>
