<svg viewBox="0 0 998 882" xmlns="http://www.w3.org/2000/svg">
 <g>
  <title>background</title>
 </g>

 <g>
  <title>Layer 1</title>
  <path fill="#ec1f26" d="m450.507096,20.404064c8.1,-9.84 19.33,-17.79 32.11,-19.88c7.34,-0.83 14.75,-0.41 22.12,-0.47c7.83,-0.08 15.62,1.63 22.79,4.74c16.05,7.24 26.54,22.3 35.17,37.03c7.61,13.64 15.2,27.3 23.21,40.71c22.9,39.14 46.12,78.09 68.53,117.51c8.83,15.5 17.28,31.21 26.52,46.48c20.87,34.96 40.26,70.79 61.3,105.65c19.46,33.32 38,67.16 57.5,100.46c28.05,48.61 55.94,97.31 84.25,145.77c37.57,64.75 75.3,129.42 111.7,194.83c3.1,6.03 1.68,12.97 2.01,19.47c-0.29,7.34 0.68,14.8 -0.74,22.06c-2.42,8.65 -7.65,16.2 -13.27,23.08c-8.25,9.59 -18.13,18.82 -30.74,22c-4.77,2.3 -10.12,1.69 -15.24,1.71c-151.67,0.01 -303.35,0 -455.02,0c-61.98,0 -123.97,0 -185.95,0c-81.02,0.01 -162.04,-0.02 -243.06,0.02c-4.31,0.2 -8.02,-2.34 -12.11,-3.25c-9.7,-2.33 -17.27,-9.37 -23.79,-16.54c-6.59,-7.7 -12.37,-16.24 -16.14,-25.68c-2.53,-5.79 -1.34,-12.24 -1.59,-18.36c0.23,-7.9 -1,-16.19 2.17,-23.68c19.48,-37.48 41.32,-73.66 62.59,-110.13c10.53,-17.87 20.46,-36.08 30.9,-53.99c19.69,-33.74 39.31,-67.51 58.79,-101.36c30.63,-52.49 60.61,-105.35 91.22,-157.85c12.59,-21.48 24.13,-43.57 37.02,-64.88c9,-14.2 16.91,-29.05 25.4,-43.56c33.27,-56.76 65.99,-113.84 99.3,-170.58c14.15,-23.88 27.87,-48.06 43.05,-71.31z" id="svg_2"/>
  <path fill="#fffefe" d="m499.057096,111.444064c41.86,71.83 83.28,143.93 124.97,215.86c89.86,155.31 179.57,310.7 269.52,465.95c-0.41,0.19 -1.23,0.59 -1.64,0.78c-4.73,-0.07 -9.46,0.01 -14.18,-0.02c-12.67,-0.02 -25.34,0.04 -38.01,-0.02c-12.65,-1.28 -25.34,0.91 -38,-0.29c-7.34,0.19 -14.72,0.68 -22.06,0.03c-4.01,-0.44 -8,0.25 -12,0.28c-28.32,0.03 -56.64,-0.07 -84.96,0.05c-7.97,-1.16 -15.96,0.64 -23.94,-0.42c-14.33,0.65 -28.7,0.3 -43.05,0.35c-10.03,0.25 -20.03,-0.59 -30.04,0.02c-10.99,-1.32 -22,0.75 -32.97,-0.4c-9.66,0.43 -19.36,0.67 -29.03,0.15c-10.63,0.33 -21.29,0.5 -31.91,-0.13c-4.69,0.28 -9.41,0.7 -14.07,-0.06c-8.34,-0.04 -16.66,0.94 -24.99,0.16c-7.66,0.8 -15.29,-0.46 -22.95,-0.15c-9.71,-0.26 -19.38,0.74 -29.08,0.43c-9,0.37 -17.99,-1.1 -26.98,-0.08c-25.35,0.32 -50.69,-0.22 -76.02,0.06c-7.66,-1.06 -15.33,0.61 -22.99,-0.26c-3.99,-0.06 -7.97,0.55 -11.96,0.17c-5.34,-0.59 -10.69,0.59 -16.04,-0.07c-4.99,-0.7 -10,0.61 -15,-0.07c-4.32,-0.52 -8.64,0.32 -12.97,0.26c-7.34,-0.02 -14.68,0 -22.02,-0.02c-7.99,0.31 -15.97,-1.06 -23.95,-0.05c-19.35,0.15 -38.69,0 -58.03,0.07c-3.08,-0.02 -6.15,-0.01 -9.22,-0.02c9.25,-16.96 19.25,-33.52 28.81,-50.31c121.56,-210.77 243.24,-421.47 364.76,-632.25z" id="svg_3"/>
  <path fill="#ec1f26" d="m552.177096,359.404064c1.81,-0.52 3.63,-1.07 5.54,-0.99c21.02,0.05 42.05,-0.02 63.07,0.03c1.95,-0.38 3.77,1.31 3.36,3.31c0.04,92.87 0,185.73 0.01,278.6c55.58,0.01 111.16,-0.03 166.74,0.02c1.94,-0.35 3.76,1.33 3.31,3.33c0.02,18.7 0.04,37.4 -0.02,56.1c-0.43,0.42 -1.29,1.24 -1.73,1.66c-78.92,0.03 -157.85,0.03 -236.78,0c-2.21,0.42 -3.93,-1.49 -3.5,-3.64c0,-112.8 -0.02,-225.61 0,-338.42z" id="svg_4"/>
  <path fill="#030303" d="m282.327096,496.094064c6.1,-0.82 12.27,-0.36 18.4,-0.47c21.02,-0.02 42.03,0.03 63.05,-0.02c10.34,0.65 20.82,0.82 30.93,3.41c14.95,3.66 28.66,12.36 38.11,24.55c5.57,6.92 9.69,14.91 12.78,23.22c0.32,1 0.63,2.01 0.94,3.03c4.72,15.15 5.23,31.16 4.64,46.89c-1.21,20.83 -8.76,41.87 -23.67,56.84c-13.73,14.07 -33.7,19.83 -52.79,21.42c-30.77,0.67 -61.57,0.23 -92.34,0.24c-0.12,-59.7 -0.03,-119.4 -0.05,-179.11z" id="svg_5"/>
  <path fill="#fffefe" d="m324.567096,527.614064c14.39,-0.04 28.79,-0.09 43.15,0.88c10.54,0.75 21.55,4.3 28.58,12.59c8.63,9.75 10.72,23.17 11.59,35.68c0.27,5.99 0.28,12 -0.03,18c-0.89,11.73 -2.58,23.98 -9.2,34.04c-4.56,7.24 -12.86,11.04 -20.94,12.85c-8.22,1.65 -16.63,1.67 -24.98,1.72c-9.39,-0.02 -18.79,0 -28.18,-0.01c0,-38.58 -0.02,-77.17 0.01,-115.75z" id="svg_6"/>
  <path fill="#030303" d="m499.837096,590.564064c13.84,-0.01 27.69,-0.1 41.53,0.04c0.7,3.7 0.46,7.48 0.49,11.22c-0.01,36.88 -0.01,73.75 0,110.63c10.16,0.03 20.31,-0.08 30.47,0.05c0.92,4.37 0.47,8.86 0.56,13.29c-0.07,6.75 0.14,13.5 -0.08,20.25c-0.21,0.29 -0.63,0.86 -0.84,1.15c-10.03,0.2 -20.08,0.02 -30.11,0.08c-0.24,12.92 0.49,25.89 -0.39,38.78c-16.06,0.11 -32.12,0.14 -48.17,-0.01c-0.4,-12.92 -0.07,-25.84 -0.17,-38.76c-33.9,-0.1 -67.8,0.14 -101.68,-0.11c-0.24,-0.29 -0.71,-0.86 -0.94,-1.14c-0.25,-10.82 0,-21.65 -0.12,-32.46c36.45,-41.04 73.02,-81.96 109.45,-123.01z" id="svg_7"/>
  <path fill="#fffefe" d="m439.607096,712.364064c17.87,-20.26 35.63,-40.62 53.46,-60.91c0.13,20.32 0.02,40.65 0.06,60.97c-17.84,0 -35.68,0.12 -53.52,-0.06z" id="svg_8"/>
 </g>
</svg>